<mxfile host="app.diagrams.net" agent="Mozilla/5.0 (Windows NT 10.0; Win64; x64) AppleWebKit/537.36 (KHTML, like Gecko) Chrome/130.0.0.0 Safari/537.36" version="24.8.3">
  <diagram name="Page-1" id="vr1vkwVivifxzDg_FmPn">
    <mxGraphModel grid="1" page="1" gridSize="10" guides="1" tooltips="1" connect="1" arrows="1" fold="1" pageScale="1" pageWidth="850" pageHeight="1100" math="0" shadow="0">
      <root>
        <mxCell id="0" />
        <mxCell id="1" parent="0" />
        <mxCell id="ZBYVkp-PsL45qQXIkno9-6" value="" style="edgeStyle=orthogonalEdgeStyle;rounded=0;orthogonalLoop=1;jettySize=auto;html=1;strokeWidth=3;" edge="1" parent="1" source="ZBYVkp-PsL45qQXIkno9-1" target="ZBYVkp-PsL45qQXIkno9-2">
          <mxGeometry relative="1" as="geometry" />
        </mxCell>
        <mxCell id="ZBYVkp-PsL45qQXIkno9-1" value="&lt;font style=&quot;font-size: 15px;&quot;&gt;Sensor&amp;nbsp;&lt;/font&gt;&lt;div style=&quot;font-size: 15px;&quot;&gt;&lt;font style=&quot;font-size: 15px;&quot;&gt;reading&lt;/font&gt;&lt;/div&gt;" style="rounded=1;whiteSpace=wrap;html=1;strokeWidth=2;" vertex="1" parent="1">
          <mxGeometry x="40" y="160" width="120" height="120" as="geometry" />
        </mxCell>
        <mxCell id="ZBYVkp-PsL45qQXIkno9-7" value="" style="edgeStyle=orthogonalEdgeStyle;rounded=0;orthogonalLoop=1;jettySize=auto;html=1;strokeWidth=3;" edge="1" parent="1" source="ZBYVkp-PsL45qQXIkno9-2" target="ZBYVkp-PsL45qQXIkno9-3">
          <mxGeometry relative="1" as="geometry" />
        </mxCell>
        <mxCell id="ZBYVkp-PsL45qQXIkno9-2" value="&lt;span style=&quot;font-size: 15px;&quot;&gt;Signal&lt;/span&gt;&lt;div&gt;&lt;span style=&quot;font-size: 15px;&quot;&gt;processing&lt;/span&gt;&lt;/div&gt;" style="rounded=1;whiteSpace=wrap;html=1;strokeWidth=2;" vertex="1" parent="1">
          <mxGeometry x="200" y="160" width="120" height="120" as="geometry" />
        </mxCell>
        <mxCell id="ZBYVkp-PsL45qQXIkno9-8" value="" style="edgeStyle=orthogonalEdgeStyle;rounded=0;orthogonalLoop=1;jettySize=auto;html=1;strokeWidth=3;" edge="1" parent="1" source="ZBYVkp-PsL45qQXIkno9-3" target="ZBYVkp-PsL45qQXIkno9-4">
          <mxGeometry relative="1" as="geometry" />
        </mxCell>
        <mxCell id="ZBYVkp-PsL45qQXIkno9-3" value="&lt;span style=&quot;font-size: 15px;&quot;&gt;AI algorithm&lt;/span&gt;" style="rounded=1;whiteSpace=wrap;html=1;strokeWidth=2;" vertex="1" parent="1">
          <mxGeometry x="360" y="160" width="120" height="120" as="geometry" />
        </mxCell>
        <mxCell id="ZBYVkp-PsL45qQXIkno9-9" value="" style="edgeStyle=orthogonalEdgeStyle;rounded=0;orthogonalLoop=1;jettySize=auto;html=1;strokeWidth=3;" edge="1" parent="1" source="ZBYVkp-PsL45qQXIkno9-4" target="ZBYVkp-PsL45qQXIkno9-5">
          <mxGeometry relative="1" as="geometry" />
        </mxCell>
        <mxCell id="ZBYVkp-PsL45qQXIkno9-4" value="&lt;span style=&quot;font-size: 15px;&quot;&gt;Postprocessing&lt;/span&gt;" style="rounded=1;whiteSpace=wrap;html=1;strokeWidth=2;" vertex="1" parent="1">
          <mxGeometry x="520" y="160" width="120" height="120" as="geometry" />
        </mxCell>
        <mxCell id="ZBYVkp-PsL45qQXIkno9-5" value="&lt;span style=&quot;font-size: 15px;&quot;&gt;Bussiness logic&lt;/span&gt;" style="rounded=1;whiteSpace=wrap;html=1;strokeWidth=2;" vertex="1" parent="1">
          <mxGeometry x="680" y="160" width="120" height="120" as="geometry" />
        </mxCell>
      </root>
    </mxGraphModel>
  </diagram>
</mxfile>
